<svg xmlns="http://www.w3.org/2000/svg" width="64" height="64" viewBox="0 0 64 64" fill="none">
  <rect width="64" height="64" rx="18" fill="#F8FAFC"/>
  <path d="M24 18C24 12.477 28.477 8 34 8C39.523 8 44 12.477 44 18V20H24V18Z" fill="#F59E0B"/>
  <path d="M20 20H48C49.105 20 50 20.895 50 22V24H18V22C18 20.895 18.895 20 20 20Z" fill="#F59E0B"/>
  <path d="M34 10.5C33.172 10.5 32.5 11.172 32.5 12V19.5H35.5V12C35.5 11.172 34.828 10.5 34 10.5Z" fill="#FDBA74"/>
  <path d="M32 25C22.611 25 15 32.611 15 42C15 51.389 22.611 59 32 59C41.389 59 49 51.389 49 42V34.5C49 31.462 46.538 29 43.5 29C40.462 29 38 31.462 38 34.5V42C38 45.314 35.314 48 32 48C28.686 48 26 45.314 26 42C26 38.686 28.686 36 32 36H36.5C38.433 36 40 34.433 40 32.5C40 30.567 38.433 29 36.5 29H32C24.82 29 19 34.82 19 42C19 49.18 24.82 55 32 55C39.18 55 45 49.18 45 42V34.5C45 33.672 44.328 33 43.5 33C42.672 33 42 33.672 42 34.5V42C42 46.523 38.523 50 34 50H32C27.03 50 23 45.97 23 41C23 36.03 27.03 32 32 32H36.5C36.776 32 37 32.224 37 32.5C37 32.776 36.776 33 36.5 33H32C27.029 33 23 37.029 23 42C23 46.971 27.029 51 32 51C36.971 51 41 46.971 41 42V34.5C41 32.014 43.014 30 45.5 30C47.986 30 50 32.014 50 34.5V42C50 51.941 41.941 60 32 60C22.059 60 14 51.941 14 42C14 32.059 22.059 24 32 24V25Z" fill="#163A6B"/>
  <circle cx="30" cy="35" r="4.75" fill="#163A6B"/>
  <path d="M28.762 48.83L21.938 42.006C20.962 41.029 20.962 39.446 21.938 38.47C22.915 37.494 24.497 37.494 25.474 38.47L28.762 41.758L39.526 30.994C40.503 30.017 42.085 30.017 43.062 30.994C44.038 31.971 44.038 33.553 43.062 34.53L28.762 48.83Z" fill="#F59E0B"/>
</svg>
